<svg width="371" height="462" viewBox="0 0 371 462" fill="none" xmlns="http://www.w3.org/2000/svg">
<circle cx="180.5" cy="170.5" r="170.5" fill="#E06816"/>
<rect x="86" y="75" width="190" height="190" rx="5" fill="#E06816" stroke="white" stroke-width="10"/>
<rect x="107" y="123" width="28" height="20" fill="white"/>
<rect x="107" y="175" width="28" height="20" fill="white"/>
<rect x="167" y="175" width="28" height="20" fill="white"/>
<rect x="227" y="175" width="28" height="20" fill="white"/>
<rect x="107" y="223" width="28" height="20" fill="white"/>
<rect x="167" y="223" width="28" height="20" fill="white"/>
<rect x="227" y="223" width="28" height="20" fill="white"/>
<rect x="167" y="123" width="28" height="20" fill="white"/>
<rect x="227" y="123" width="28" height="20" fill="white"/>
<rect x="116" y="56" width="10" height="50" rx="5" fill="white"/>
<rect x="176" y="56" width="10" height="50" rx="5" fill="white"/>
<rect x="236" y="56" width="10" height="50" rx="5" fill="white"/>
<path d="M44.4545 398.364L37.2273 400.409C36.7727 399.205 36.1023 398.034 35.2159 396.898C34.3523 395.739 33.1705 394.784 31.6705 394.034C30.1705 393.284 28.25 392.909 25.9091 392.909C22.7045 392.909 20.0341 393.648 17.8977 395.125C15.7841 396.58 14.7273 398.432 14.7273 400.682C14.7273 402.682 15.4545 404.261 16.9091 405.42C18.3636 406.58 20.6364 407.545 23.7273 408.318L31.5 410.227C36.1818 411.364 39.6705 413.102 41.9659 415.443C44.2614 417.761 45.4091 420.75 45.4091 424.409C45.4091 427.409 44.5455 430.091 42.8182 432.455C41.1136 434.818 38.7273 436.682 35.6591 438.045C32.5909 439.409 29.0227 440.091 24.9545 440.091C19.6136 440.091 15.1932 438.932 11.6932 436.614C8.19318 434.295 5.97727 430.909 5.04545 426.455L12.6818 424.545C13.4091 427.364 14.7841 429.477 16.8068 430.886C18.8523 432.295 21.5227 433 24.8182 433C28.5682 433 31.5455 432.205 33.75 430.614C35.9773 429 37.0909 427.068 37.0909 424.818C37.0909 423 36.4545 421.477 35.1818 420.25C33.9091 419 31.9545 418.068 29.3182 417.455L20.5909 415.409C15.7955 414.273 12.2727 412.511 10.0227 410.125C7.79545 407.716 6.68182 404.705 6.68182 401.091C6.68182 398.136 7.51136 395.523 9.17045 393.25C10.8523 390.977 13.1364 389.193 16.0227 387.898C18.9318 386.602 22.2273 385.955 25.9091 385.955C31.0909 385.955 35.1591 387.091 38.1136 389.364C41.0909 391.636 43.2045 394.636 44.4545 398.364ZM58.6108 439V369.182H67.0653V403.818H67.8835L99.2472 369.182H110.293L80.9744 400.682L110.293 439H100.065L75.7926 406.545L67.0653 416.364V439H58.6108ZM138.256 440.091C133.21 440.091 128.858 438.977 125.199 436.75C121.562 434.5 118.756 431.364 116.778 427.341C114.824 423.295 113.847 418.591 113.847 413.227C113.847 407.864 114.824 403.136 116.778 399.045C118.756 394.932 121.506 391.727 125.028 389.432C128.574 387.114 132.71 385.955 137.438 385.955C140.165 385.955 142.858 386.409 145.517 387.318C148.176 388.227 150.597 389.705 152.778 391.75C154.96 393.773 156.699 396.455 157.994 399.795C159.29 403.136 159.938 407.25 159.938 412.136V415.545H119.574V408.591H151.756C151.756 405.636 151.165 403 149.983 400.682C148.824 398.364 147.165 396.534 145.006 395.193C142.869 393.852 140.347 393.182 137.438 393.182C134.233 393.182 131.46 393.977 129.119 395.568C126.801 397.136 125.017 399.182 123.767 401.705C122.517 404.227 121.892 406.932 121.892 409.818V414.455C121.892 418.409 122.574 421.761 123.938 424.511C125.324 427.239 127.244 429.318 129.699 430.75C132.153 432.159 135.006 432.864 138.256 432.864C140.369 432.864 142.278 432.568 143.983 431.977C145.71 431.364 147.199 430.455 148.449 429.25C149.699 428.023 150.665 426.5 151.347 424.682L159.119 426.864C158.301 429.5 156.926 431.818 154.994 433.818C153.063 435.795 150.676 437.341 147.835 438.455C144.994 439.545 141.801 440.091 138.256 440.091ZM220.994 391C220.244 388.705 219.256 386.648 218.028 384.83C216.824 382.989 215.381 381.42 213.699 380.125C212.04 378.83 210.153 377.841 208.04 377.159C205.926 376.477 203.608 376.136 201.085 376.136C196.949 376.136 193.188 377.205 189.801 379.341C186.415 381.477 183.722 384.625 181.722 388.784C179.722 392.943 178.722 398.045 178.722 404.091C178.722 410.136 179.733 415.239 181.756 419.398C183.778 423.557 186.517 426.705 189.972 428.841C193.426 430.977 197.313 432.045 201.631 432.045C205.631 432.045 209.153 431.193 212.199 429.489C215.267 427.761 217.653 425.33 219.358 422.193C221.085 419.034 221.949 415.318 221.949 411.045L224.54 411.591H203.54V404.091H230.131V411.591C230.131 417.341 228.903 422.341 226.449 426.591C224.017 430.841 220.653 434.136 216.358 436.477C212.085 438.795 207.176 439.955 201.631 439.955C195.449 439.955 190.017 438.5 185.335 435.591C180.676 432.682 177.04 428.545 174.426 423.182C171.835 417.818 170.54 411.455 170.54 404.091C170.54 398.568 171.278 393.602 172.756 389.193C174.256 384.761 176.369 380.989 179.097 377.875C181.824 374.761 185.051 372.375 188.778 370.716C192.506 369.057 196.608 368.227 201.085 368.227C204.767 368.227 208.199 368.784 211.381 369.898C214.585 370.989 217.438 372.545 219.938 374.568C222.46 376.568 224.563 378.966 226.244 381.761C227.926 384.534 229.085 387.614 229.722 391H220.994ZM276.52 417.591V386.636H284.565V439H276.52V430.136H275.974C274.747 432.795 272.838 435.057 270.247 436.92C267.656 438.761 264.384 439.682 260.429 439.682C257.156 439.682 254.247 438.966 251.702 437.534C249.156 436.08 247.156 433.898 245.702 430.989C244.247 428.057 243.52 424.364 243.52 419.909V386.636H251.565V419.364C251.565 423.182 252.634 426.227 254.77 428.5C256.929 430.773 259.679 431.909 263.02 431.909C265.02 431.909 267.054 431.398 269.122 430.375C271.213 429.352 272.963 427.784 274.372 425.67C275.804 423.557 276.52 420.864 276.52 417.591ZM307.347 369.182V439H299.301V369.182H307.347ZM344.037 440.091C338.991 440.091 334.639 438.977 330.98 436.75C327.344 434.5 324.537 431.364 322.56 427.341C320.605 423.295 319.628 418.591 319.628 413.227C319.628 407.864 320.605 403.136 322.56 399.045C324.537 394.932 327.287 391.727 330.81 389.432C334.355 387.114 338.491 385.955 343.219 385.955C345.946 385.955 348.639 386.409 351.298 387.318C353.957 388.227 356.378 389.705 358.56 391.75C360.741 393.773 362.48 396.455 363.776 399.795C365.071 403.136 365.719 407.25 365.719 412.136V415.545H325.355V408.591H357.537C357.537 405.636 356.946 403 355.764 400.682C354.605 398.364 352.946 396.534 350.787 395.193C348.651 393.852 346.128 393.182 343.219 393.182C340.014 393.182 337.241 393.977 334.901 395.568C332.582 397.136 330.798 399.182 329.548 401.705C328.298 404.227 327.673 406.932 327.673 409.818V414.455C327.673 418.409 328.355 421.761 329.719 424.511C331.105 427.239 333.026 429.318 335.48 430.75C337.935 432.159 340.787 432.864 344.037 432.864C346.151 432.864 348.06 432.568 349.764 431.977C351.491 431.364 352.98 430.455 354.23 429.25C355.48 428.023 356.446 426.5 357.128 424.682L364.901 426.864C364.082 429.5 362.707 431.818 360.776 433.818C358.844 435.795 356.457 437.341 353.616 438.455C350.776 439.545 347.582 440.091 344.037 440.091Z" fill="#201F1F"/>
</svg>
